STARTFONT 2.1
FONT -FontForge-Dustfine-Book-R-Normal--65-620-75-75-P-294-ISO10646-1
SIZE 62 75 75
FONTBOUNDINGBOX 44 65 0 -13
COMMENT "Generated by fontforge, http://fontforge.sourceforge.net"
COMMENT "Typeface by Chequered Ink. (c) 2020. All Rights Reserved"
STARTPROPERTIES 40
FOUNDRY "FontForge"
FAMILY_NAME "Dustfine"
WEIGHT_NAME "Book"
SLANT "R"
SETWIDTH_NAME "Normal"
ADD_STYLE_NAME ""
PIXEL_SIZE 65
POINT_SIZE 620
RESOLUTION_X 75
RESOLUTION_Y 75
SPACING "P"
AVERAGE_WIDTH 294
CHARSET_REGISTRY "ISO10646"
CHARSET_ENCODING "1"
FONTNAME_REGISTRY ""
CHARSET_COLLECTIONS "ISO10646-1"
FONT_NAME "Dustfine"
FACE_NAME "Dustfine"
COPYRIGHT "Typeface by Chequered Ink. (c) 2020. All Rights Reserved"
FONT_VERSION "1.00;April 20, 2020;FontCreator 11.5.0.2430 64-bit"
FONT_ASCENT 52
FONT_DESCENT 13
UNDERLINE_POSITION -9
UNDERLINE_THICKNESS 5
X_HEIGHT 44
CAP_HEIGHT 44
DEFAULT_CHAR 1
RAW_ASCENT 799
RAW_DESCENT 200
NORM_SPACE 8
RELATIVE_WEIGHT 40
RELATIVE_SETWIDTH 50
SUPERSCRIPT_X 0
SUPERSCRIPT_Y 31
SUPERSCRIPT_SIZE 42
SUBSCRIPT_X 0
SUBSCRIPT_Y 8
SUBSCRIPT_SIZE 42
AVG_LOWERCASE_WIDTH 326
AVG_UPPERCASE_WIDTH 326
ENDPROPERTIES
CHARS 102
STARTCHAR .null.dup1
ENCODING 0
SWIDTH 0 0
DWIDTH 0 0
BBX 1 1 0 0
BITMAP
00
ENDCHAR
STARTCHAR .null
ENCODING 29
SWIDTH 0 0
DWIDTH 0 0
BBX 1 1 0 0
BITMAP
00
ENDCHAR
STARTCHAR space
ENCODING 32
SWIDTH 122 0
DWIDTH 8 0
BBX 1 1 0 0
BITMAP
00
ENDCHAR
STARTCHAR exclam
ENCODING 33
SWIDTH 244 0
DWIDTH 16 0
BBX 13 45 0 0
BITMAP
FFF8
FFF8
FFF8
FFF8
FFF8
FFF8
FFF8
FFF8
FFF8
FFF8
FFF8
FFF8
FFF8
FFF8
FFF8
FFF8
FFF8
FFF8
FFF8
FFF8
FFF8
FFF8
FFF8
FFF8
FFF8
FFF8
FFF8
FFF8
FFF8
0000
0000
0000
FFF8
FFF8
FFF8
FFF8
FFF8
FFF8
FFF8
FFF8
FFF8
FFF8
FFF8
FFF8
FFF8
ENDCHAR
STARTCHAR quotedbl
ENCODING 34
SWIDTH 488 0
DWIDTH 32 0
BBX 29 19 0 26
BITMAP
FFF8FFF8
FFF8FFF8
FFF8FFF8
FFF8FFF8
FFF8FFF8
FFF8FFF8
FFF8FFF8
FFF8FFF8
FFF8FFF8
FFF8FFF8
FFF8FFF8
FFF8FFF8
FFF8FFF8
FFF8FFF8
FFF8FFF8
FFF8FFF8
FFF8FFF8
FFF8FFF8
FFF8FFF8
ENDCHAR
STARTCHAR numbersign
ENCODING 35
SWIDTH 585 0
DWIDTH 38 0
BBX 35 45 0 0
BITMAP
1FFF1FFF00
1FFF1FFF00
1FFF1FFF00
1FFF1FFF00
1FFF1FFF00
1FFF1FFF00
FFFFFFFFE0
FFFFFFFFE0
FFFFFFFFE0
FFFFFFFFE0
FFFFFFFFE0
FFFFFFFFE0
FFFFFFFFE0
FFFFFFFFE0
FFFFFFFFE0
FFFFFFFFE0
FFFFFFFFE0
FFFFFFFFE0
FFFFFFFFE0
1FFF1FFF00
1FFF1FFF00
1FFF1FFF00
1FFF1FFF00
1FFF1FFF00
1FFF1FFF00
1FFF1FFF00
FFFFFFFFE0
FFFFFFFFE0
FFFFFFFFE0
FFFFFFFFE0
FFFFFFFFE0
FFFFFFFFE0
FFFFFFFFE0
FFFFFFFFE0
FFFFFFFFE0
FFFFFFFFE0
FFFFFFFFE0
FFFFFFFFE0
FFFFFFFFE0
1FFF1FFF00
1FFF1FFF00
1FFF1FFF00
1FFF1FFF00
1FFF1FFF00
1FFF1FFF00
ENDCHAR
STARTCHAR dollar
ENCODING 36
SWIDTH 488 0
DWIDTH 32 0
BBX 29 58 0 -6
BITMAP
00FFF800
00FFF800
00FFF800
00FFF800
00FFF800
00FFF800
00FFF800
FFFFFFF8
FFFFFFF8
FFFFFFF8
FFFFFFF8
FFFFFFF8
FFFFFFF8
FFFFFFF8
FFFFFFF8
FFFFFFF8
FFFFFFF8
FFFFFFF8
FFFFFFF8
FFFFFFF8
FFF80000
FFF80000
FFF80000
FFFFFFF8
FFFFFFF8
FFFFFFF8
FFFFFFF8
FFFFFFF8
FFFFFFF8
FFFFFFF8
FFFFFFF8
FFFFFFF8
FFFFFFF8
FFFFFFF8
FFFFFFF8
FFFFFFF8
0000FFF8
0000FFF8
0000FFF8
FFFFFFF8
FFFFFFF8
FFFFFFF8
FFFFFFF8
FFFFFFF8
FFFFFFF8
FFFFFFF8
FFFFFFF8
FFFFFFF8
FFFFFFF8
FFFFFFF8
FFFFFFF8
FFFFFFF8
00FFF800
00FFF800
00FFF800
00FFF800
00FFF800
00FFF800
ENDCHAR
STARTCHAR percent
ENCODING 37
SWIDTH 488 0
DWIDTH 32 0
BBX 29 49 0 -2
BITMAP
00000008
00000018
FFF80038
FFF80078
FFF800F8
FFF801F8
FFF801F8
FFF803F8
FFF807F8
FFF80FF8
FFF81FF8
FFF83FF8
FFF87FF8
FFF8FFF8
FFF9FFF8
0003FFF8
0007FFF8
000FFFF8
001FFFF8
003FFFF8
007FFFF0
00FFFFE0
01FFFFC0
03FFFF80
07FFFF00
0FFFFE00
1FFFFC00
3FFFF800
7FFFF000
FFFFE000
FFFFC000
FFFF8000
FFFF0000
FFFE0000
FFFCFFF8
FFF8FFF8
FFF0FFF8
FFE0FFF8
FFC0FFF8
FF80FFF8
FF00FFF8
FE00FFF8
FC00FFF8
F800FFF8
F000FFF8
E000FFF8
C000FFF8
80000000
80000000
ENDCHAR
STARTCHAR ampersand
ENCODING 38
SWIDTH 634 0
DWIDTH 41 0
BBX 38 45 0 0
BITMAP
FFFFE00000
FFFFE00000
FFFFE00000
FFFFE00000
FFFFE00000
FFFFE00000
FFFFE00000
FFFFE00000
FFFFE00000
FFFFE00000
FFFFE00000
FFFFE00000
FFFFE00000
FFF803FFE0
FFF803FFE0
FFF803FFE0
FFFFFFFFFC
FFFFFFFFFC
FFFFFFFFFC
FFFFFFFFFC
FFFFFFFFFC
FFFFFFFFFC
FFFFFFFFFC
FFFFFFFFFC
FFFFFFFFFC
FFFFFFFFFC
FFFFFFFFFC
FFFFFFFFFC
FFFFFFFFFC
FFF803FFE0
FFF803FFE0
FFF803FFE0
FFFFFFFFFC
FFFFFFFFFC
FFFFFFFFFC
FFFFFFFFFC
FFFFFFFFFC
FFFFFFFFFC
FFFFFFFFFC
FFFFFFFFFC
FFFFFFFFFC
FFFFFFFFFC
FFFFFFFFFC
FFFFFFFFFC
FFFFFFFFFC
ENDCHAR
STARTCHAR quotesingle
ENCODING 39
SWIDTH 244 0
DWIDTH 16 0
BBX 13 19 0 26
BITMAP
FFF8
FFF8
FFF8
FFF8
FFF8
FFF8
FFF8
FFF8
FFF8
FFF8
FFF8
FFF8
FFF8
FFF8
FFF8
FFF8
FFF8
FFF8
FFF8
ENDCHAR
STARTCHAR parenleft
ENCODING 40
SWIDTH 390 0
DWIDTH 25 0
BBX 22 51 0 -3
BITMAP
FFFFFC
FFFFFC
FFFFFC
FFFFFC
FFFFFC
FFFFFC
FFFFFC
FFFFFC
FFFFFC
FFFFFC
FFFFFC
FFFFFC
FFFFFC
FFF800
FFF800
FFF800
FFF800
FFF800
FFF800
FFF800
FFF800
FFF800
FFF800
FFF800
FFF800
FFF800
FFF800
FFF800
FFF800
FFF800
FFF800
FFF800
FFF800
FFF800
FFF800
FFF800
FFF800
FFF800
FFFFFC
FFFFFC
FFFFFC
FFFFFC
FFFFFC
FFFFFC
FFFFFC
FFFFFC
FFFFFC
FFFFFC
FFFFFC
FFFFFC
FFFFFC
ENDCHAR
STARTCHAR parenright
ENCODING 41
SWIDTH 390 0
DWIDTH 25 0
BBX 22 51 0 -3
BITMAP
FFFFFC
FFFFFC
FFFFFC
FFFFFC
FFFFFC
FFFFFC
FFFFFC
FFFFFC
FFFFFC
FFFFFC
FFFFFC
FFFFFC
FFFFFC
003FFC
003FFC
003FFC
003FFC
003FFC
003FFC
003FFC
003FFC
003FFC
003FFC
003FFC
003FFC
003FFC
003FFC
003FFC
003FFC
003FFC
003FFC
003FFC
003FFC
003FFC
003FFC
003FFC
003FFC
003FFC
FFFFFC
FFFFFC
FFFFFC
FFFFFC
FFFFFC
FFFFFC
FFFFFC
FFFFFC
FFFFFC
FFFFFC
FFFFFC
FFFFFC
FFFFFC
ENDCHAR
STARTCHAR asterisk
ENCODING 42
SWIDTH 390 0
DWIDTH 25 0
BBX 22 23 0 22
BITMAP
07FF80
07FF80
07FF80
07FF80
07FF80
FFFFFC
FFFFFC
FFFFFC
FFFFFC
FFFFFC
FFFFFC
FFFFFC
FFFFFC
FFFFFC
FFFFFC
FFFFFC
FFFFFC
FFFFFC
07FF80
07FF80
07FF80
07FF80
07FF80
ENDCHAR
STARTCHAR plus
ENCODING 43
SWIDTH 390 0
DWIDTH 25 0
BBX 22 23 0 11
BITMAP
07FF80
07FF80
07FF80
07FF80
07FF80
FFFFFC
FFFFFC
FFFFFC
FFFFFC
FFFFFC
FFFFFC
FFFFFC
FFFFFC
FFFFFC
FFFFFC
FFFFFC
FFFFFC
FFFFFC
07FF80
07FF80
07FF80
07FF80
07FF80
ENDCHAR
STARTCHAR comma
ENCODING 44
SWIDTH 244 0
DWIDTH 16 0
BBX 13 26 0 -13
BITMAP
FFF8
FFF8
FFF8
FFF8
FFF8
FFF8
FFF8
FFF8
FFF8
FFF8
FFF8
FFF8
FFF8
FFF0
FFE0
FFC0
FF80
FF00
FE00
FC00
F800
F000
E000
C000
8000
8000
ENDCHAR
STARTCHAR hyphen
ENCODING 45
SWIDTH 390 0
DWIDTH 25 0
BBX 22 13 0 16
BITMAP
FFFFFC
FFFFFC
FFFFFC
FFFFFC
FFFFFC
FFFFFC
FFFFFC
FFFFFC
FFFFFC
FFFFFC
FFFFFC
FFFFFC
FFFFFC
ENDCHAR
STARTCHAR period
ENCODING 46
SWIDTH 244 0
DWIDTH 16 0
BBX 13 13 0 0
BITMAP
FFF8
FFF8
FFF8
FFF8
FFF8
FFF8
FFF8
FFF8
FFF8
FFF8
FFF8
FFF8
FFF8
ENDCHAR
STARTCHAR slash
ENCODING 47
SWIDTH 488 0
DWIDTH 32 0
BBX 29 48 0 -2
BITMAP
00000008
00000018
00000038
00000078
000000F8
000001F8
000003F8
000007F8
00000FF8
00001FF8
00003FF8
00007FF8
0000FFF8
0001FFF8
0003FFF8
0007FFF8
000FFFF8
001FFFF8
003FFFF8
007FFFF0
00FFFFE0
01FFFFC0
03FFFF80
07FFFF00
0FFFFE00
1FFFFC00
3FFFF800
7FFFF000
FFFFE000
FFFFC000
FFFF8000
FFFF0000
FFFE0000
FFFC0000
FFF80000
FFF00000
FFE00000
FFC00000
FF800000
FF000000
FE000000
FC000000
F8000000
F0000000
E0000000
C0000000
80000000
80000000
ENDCHAR
STARTCHAR zero
ENCODING 48
SWIDTH 488 0
DWIDTH 32 0
BBX 29 45 0 0
BITMAP
FFFFFFF8
FFFFFFF8
FFFFFFF8
FFFFFFF8
FFFFFFF8
FFFFFFF8
FFFFFFF8
FFFFFFF8
FFFFFFF8
FFFFFFF8
FFFFFFF8
FFFFFFF8
FFFFFFF8
FFF8FFF8
FFF8FFF8
FFF8FFF8
FFF8FFF8
FFF8FFF8
FFF8FFF8
FFF8FFF8
FFF8FFF8
FFF8FFF8
FFF8FFF8
FFF8FFF8
FFF8FFF8
FFF8FFF8
FFF8FFF8
FFF8FFF8
FFF8FFF8
FFF8FFF8
FFF8FFF8
FFF8FFF8
FFFFFFF8
FFFFFFF8
FFFFFFF8
FFFFFFF8
FFFFFFF8
FFFFFFF8
FFFFFFF8
FFFFFFF8
FFFFFFF8
FFFFFFF8
FFFFFFF8
FFFFFFF8
FFFFFFF8
ENDCHAR
STARTCHAR one
ENCODING 49
SWIDTH 244 0
DWIDTH 16 0
BBX 13 45 0 0
BITMAP
FFF8
FFF8
FFF8
FFF8
FFF8
FFF8
FFF8
FFF8
FFF8
FFF8
FFF8
FFF8
FFF8
FFF8
FFF8
FFF8
FFF8
FFF8
FFF8
FFF8
FFF8
FFF8
FFF8
FFF8
FFF8
FFF8
FFF8
FFF8
FFF8
FFF8
FFF8
FFF8
FFF8
FFF8
FFF8
FFF8
FFF8
FFF8
FFF8
FFF8
FFF8
FFF8
FFF8
FFF8
FFF8
ENDCHAR
STARTCHAR two
ENCODING 50
SWIDTH 488 0
DWIDTH 32 0
BBX 29 45 0 0
BITMAP
FFFFFFF8
FFFFFFF8
FFFFFFF8
FFFFFFF8
FFFFFFF8
FFFFFFF8
FFFFFFF8
FFFFFFF8
FFFFFFF8
FFFFFFF8
FFFFFFF8
FFFFFFF8
FFFFFFF8
0000FFF8
0000FFF8
0000FFF8
FFFFFFF8
FFFFFFF8
FFFFFFF8
FFFFFFF8
FFFFFFF8
FFFFFFF8
FFFFFFF8
FFFFFFF8
FFFFFFF8
FFFFFFF8
FFFFFFF8
FFFFFFF8
FFFFFFF8
FFF80000
FFF80000
FFF80000
FFFFFFF8
FFFFFFF8
FFFFFFF8
FFFFFFF8
FFFFFFF8
FFFFFFF8
FFFFFFF8
FFFFFFF8
FFFFFFF8
FFFFFFF8
FFFFFFF8
FFFFFFF8
FFFFFFF8
ENDCHAR
STARTCHAR three
ENCODING 51
SWIDTH 488 0
DWIDTH 32 0
BBX 29 45 0 0
BITMAP
FFFFFFF8
FFFFFFF8
FFFFFFF8
FFFFFFF8
FFFFFFF8
FFFFFFF8
FFFFFFF8
FFFFFFF8
FFFFFFF8
FFFFFFF8
FFFFFFF8
FFFFFFF8
FFFFFFF8
0000FFF8
0000FFF8
0000FFF8
FFFFFFF8
FFFFFFF8
FFFFFFF8
FFFFFFF8
FFFFFFF8
FFFFFFF8
FFFFFFF8
FFFFFFF8
FFFFFFF8
FFFFFFF8
FFFFFFF8
FFFFFFF8
FFFFFFF8
0000FFF8
0000FFF8
0000FFF8
FFFFFFF8
FFFFFFF8
FFFFFFF8
FFFFFFF8
FFFFFFF8
FFFFFFF8
FFFFFFF8
FFFFFFF8
FFFFFFF8
FFFFFFF8
FFFFFFF8
FFFFFFF8
FFFFFFF8
ENDCHAR
STARTCHAR four
ENCODING 52
SWIDTH 488 0
DWIDTH 32 0
BBX 29 45 0 0
BITMAP
FFF8FFF8
FFF8FFF8
FFF8FFF8
FFF8FFF8
FFF8FFF8
FFF8FFF8
FFF8FFF8
FFF8FFF8
FFF8FFF8
FFF8FFF8
FFF8FFF8
FFF8FFF8
FFF8FFF8
FFF8FFF8
FFF8FFF8
FFF8FFF8
FFFFFFF8
FFFFFFF8
FFFFFFF8
FFFFFFF8
FFFFFFF8
FFFFFFF8
FFFFFFF8
FFFFFFF8
FFFFFFF8
FFFFFFF8
FFFFFFF8
FFFFFFF8
FFFFFFF8
0000FFF8
0000FFF8
0000FFF8
0000FFF8
0000FFF8
0000FFF8
0000FFF8
0000FFF8
0000FFF8
0000FFF8
0000FFF8
0000FFF8
0000FFF8
0000FFF8
0000FFF8
0000FFF8
ENDCHAR
STARTCHAR five
ENCODING 53
SWIDTH 488 0
DWIDTH 32 0
BBX 29 45 0 0
BITMAP
FFFFFFF8
FFFFFFF8
FFFFFFF8
FFFFFFF8
FFFFFFF8
FFFFFFF8
FFFFFFF8
FFFFFFF8
FFFFFFF8
FFFFFFF8
FFFFFFF8
FFFFFFF8
FFFFFFF8
FFF80000
FFF80000
FFF80000
FFFFFFF8
FFFFFFF8
FFFFFFF8
FFFFFFF8
FFFFFFF8
FFFFFFF8
FFFFFFF8
FFFFFFF8
FFFFFFF8
FFFFFFF8
FFFFFFF8
FFFFFFF8
FFFFFFF8
0000FFF8
0000FFF8
0000FFF8
FFFFFFF8
FFFFFFF8
FFFFFFF8
FFFFFFF8
FFFFFFF8
FFFFFFF8
FFFFFFF8
FFFFFFF8
FFFFFFF8
FFFFFFF8
FFFFFFF8
FFFFFFF8
FFFFFFF8
ENDCHAR
STARTCHAR six
ENCODING 54
SWIDTH 488 0
DWIDTH 32 0
BBX 29 45 0 0
BITMAP
FFFFFFF8
FFFFFFF8
FFFFFFF8
FFFFFFF8
FFFFFFF8
FFFFFFF8
FFFFFFF8
FFFFFFF8
FFFFFFF8
FFFFFFF8
FFFFFFF8
FFFFFFF8
FFFFFFF8
FFF80000
FFF80000
FFF80000
FFFFFFF8
FFFFFFF8
FFFFFFF8
FFFFFFF8
FFFFFFF8
FFFFFFF8
FFFFFFF8
FFFFFFF8
FFFFFFF8
FFFFFFF8
FFFFFFF8
FFFFFFF8
FFFFFFF8
FFF8FFF8
FFF8FFF8
FFF8FFF8
FFFFFFF8
FFFFFFF8
FFFFFFF8
FFFFFFF8
FFFFFFF8
FFFFFFF8
FFFFFFF8
FFFFFFF8
FFFFFFF8
FFFFFFF8
FFFFFFF8
FFFFFFF8
FFFFFFF8
ENDCHAR
STARTCHAR seven
ENCODING 55
SWIDTH 488 0
DWIDTH 32 0
BBX 29 45 0 0
BITMAP
FFFFFFF8
FFFFFFF8
FFFFFFF8
FFFFFFF8
FFFFFFF8
FFFFFFF8
FFFFFFF8
FFFFFFF8
FFFFFFF8
FFFFFFF8
FFFFFFF8
FFFFFFF8
FFFFFFF8
0000FFF8
0000FFF8
0000FFF8
FFFFFFF8
FFFFFFF8
FFFFFFF8
FFFFFFF8
FFFFFFF8
FFFFFFF8
FFFFFFF8
FFFFFFF8
FFFFFFF8
FFFFFFF8
FFFFFFF8
FFFFFFF8
FFFFFFF8
FFF80000
FFF80000
FFF80000
FFF80000
FFF80000
FFF80000
FFF80000
FFF80000
FFF80000
FFF80000
FFF80000
FFF80000
FFF80000
FFF80000
FFF80000
FFF80000
ENDCHAR
STARTCHAR eight
ENCODING 56
SWIDTH 488 0
DWIDTH 32 0
BBX 29 45 0 0
BITMAP
FFFFFFF8
FFFFFFF8
FFFFFFF8
FFFFFFF8
FFFFFFF8
FFFFFFF8
FFFFFFF8
FFFFFFF8
FFFFFFF8
FFFFFFF8
FFFFFFF8
FFFFFFF8
FFFFFFF8
FFF8FFF8
FFF8FFF8
FFF8FFF8
FFFFFFF8
FFFFFFF8
FFFFFFF8
FFFFFFF8
FFFFFFF8
FFFFFFF8
FFFFFFF8
FFFFFFF8
FFFFFFF8
FFFFFFF8
FFFFFFF8
FFFFFFF8
FFFFFFF8
FFF8FFF8
FFF8FFF8
FFF8FFF8
FFFFFFF8
FFFFFFF8
FFFFFFF8
FFFFFFF8
FFFFFFF8
FFFFFFF8
FFFFFFF8
FFFFFFF8
FFFFFFF8
FFFFFFF8
FFFFFFF8
FFFFFFF8
FFFFFFF8
ENDCHAR
STARTCHAR nine
ENCODING 57
SWIDTH 488 0
DWIDTH 32 0
BBX 29 45 0 0
BITMAP
FFFFFFF8
FFFFFFF8
FFFFFFF8
FFFFFFF8
FFFFFFF8
FFFFFFF8
FFFFFFF8
FFFFFFF8
FFFFFFF8
FFFFFFF8
FFFFFFF8
FFFFFFF8
FFFFFFF8
FFF8FFF8
FFF8FFF8
FFF8FFF8
FFFFFFF8
FFFFFFF8
FFFFFFF8
FFFFFFF8
FFFFFFF8
FFFFFFF8
FFFFFFF8
FFFFFFF8
FFFFFFF8
FFFFFFF8
FFFFFFF8
FFFFFFF8
FFFFFFF8
0000FFF8
0000FFF8
0000FFF8
FFFFFFF8
FFFFFFF8
FFFFFFF8
FFFFFFF8
FFFFFFF8
FFFFFFF8
FFFFFFF8
FFFFFFF8
FFFFFFF8
FFFFFFF8
FFFFFFF8
FFFFFFF8
FFFFFFF8
ENDCHAR
STARTCHAR colon
ENCODING 58
SWIDTH 244 0
DWIDTH 16 0
BBX 13 33 0 0
BITMAP
FFF8
FFF8
FFF8
FFF8
FFF8
FFF8
FFF8
FFF8
FFF8
FFF8
FFF8
FFF8
FFF8
0000
0000
0000
0000
0000
0000
0000
FFF8
FFF8
FFF8
FFF8
FFF8
FFF8
FFF8
FFF8
FFF8
FFF8
FFF8
FFF8
FFF8
ENDCHAR
STARTCHAR semicolon
ENCODING 59
SWIDTH 244 0
DWIDTH 16 0
BBX 13 45 0 -12
BITMAP
FFF8
FFF8
FFF8
FFF8
FFF8
FFF8
FFF8
FFF8
FFF8
FFF8
FFF8
FFF8
FFF8
0000
0000
0000
0000
0000
0000
0000
FFF8
FFF8
FFF8
FFF8
FFF8
FFF8
FFF8
FFF8
FFF8
FFF8
FFF8
FFF8
FFF8
FFF0
FFE0
FFC0
FF80
FF00
FE00
FC00
F800
F000
E000
C000
8000
ENDCHAR
STARTCHAR less
ENCODING 60
SWIDTH 390 0
DWIDTH 25 0
BBX 22 51 0 -3
BITMAP
FFFFFC
FFFFFC
FFFFFC
FFFFFC
FFFFFC
FFFFFC
FFFFFC
FFFFFC
FFFFFC
FFFFFC
FFFFFC
FFFFFC
FFFFFC
FFF800
FFF800
FFF800
FFF800
FFF800
FFF800
FFF800
FFF800
FFF800
FFF800
FFF800
FFF800
FFF800
FFF800
FFF800
FFF800
FFF800
FFF800
FFF800
FFF800
FFF800
FFF800
FFF800
FFF800
FFF800
FFFFFC
FFFFFC
FFFFFC
FFFFFC
FFFFFC
FFFFFC
FFFFFC
FFFFFC
FFFFFC
FFFFFC
FFFFFC
FFFFFC
FFFFFC
ENDCHAR
STARTCHAR equal
ENCODING 61
SWIDTH 390 0
DWIDTH 25 0
BBX 22 29 0 8
BITMAP
FFFFFC
FFFFFC
FFFFFC
FFFFFC
FFFFFC
FFFFFC
FFFFFC
FFFFFC
FFFFFC
FFFFFC
FFFFFC
FFFFFC
FFFFFC
000000
000000
000000
FFFFFC
FFFFFC
FFFFFC
FFFFFC
FFFFFC
FFFFFC
FFFFFC
FFFFFC
FFFFFC
FFFFFC
FFFFFC
FFFFFC
FFFFFC
ENDCHAR
STARTCHAR greater
ENCODING 62
SWIDTH 390 0
DWIDTH 25 0
BBX 22 51 0 -3
BITMAP
FFFFFC
FFFFFC
FFFFFC
FFFFFC
FFFFFC
FFFFFC
FFFFFC
FFFFFC
FFFFFC
FFFFFC
FFFFFC
FFFFFC
FFFFFC
003FFC
003FFC
003FFC
003FFC
003FFC
003FFC
003FFC
003FFC
003FFC
003FFC
003FFC
003FFC
003FFC
003FFC
003FFC
003FFC
003FFC
003FFC
003FFC
003FFC
003FFC
003FFC
003FFC
003FFC
003FFC
FFFFFC
FFFFFC
FFFFFC
FFFFFC
FFFFFC
FFFFFC
FFFFFC
FFFFFC
FFFFFC
FFFFFC
FFFFFC
FFFFFC
FFFFFC
ENDCHAR
STARTCHAR question
ENCODING 63
SWIDTH 488 0
DWIDTH 32 0
BBX 29 45 0 0
BITMAP
FFFFFFF8
FFFFFFF8
FFFFFFF8
FFFFFFF8
FFFFFFF8
FFFFFFF8
FFFFFFF8
FFFFFFF8
FFFFFFF8
FFFFFFF8
FFFFFFF8
FFFFFFF8
FFFFFFF8
0000FFF8
0000FFF8
0000FFF8
FFFFFFF8
FFFFFFF8
FFFFFFF8
FFFFFFF8
FFFFFFF8
FFFFFFF8
FFFFFFF8
FFFFFFF8
FFFFFFF8
FFFFFFF8
FFFFFFF8
FFFFFFF8
FFFFFFF8
00000000
00000000
00000000
FFF80000
FFF80000
FFF80000
FFF80000
FFF80000
FFF80000
FFF80000
FFF80000
FFF80000
FFF80000
FFF80000
FFF80000
FFF80000
ENDCHAR
STARTCHAR at
ENCODING 64
SWIDTH 488 0
DWIDTH 32 0
BBX 29 45 0 0
BITMAP
FFFFFFF8
FFFFFFF8
FFFFFFF8
FFFFFFF8
FFFFFFF8
FFFFFFF8
FFFFFFF8
FFFFFFF8
FFFFFFF8
FFFFFFF8
FFFFFFF8
FFFFFFF8
FFFFFFF8
FFF8FFF8
FFF8FFF8
FFF8FFF8
FFF8FFF0
FFF8FFE0
FFF8FFC0
FFF8FF80
FFF8FF00
FFF8FE00
FFF8FC00
FFF8F800
FFF8F000
FFF8E000
FFF8C000
FFF88000
FFF88000
FFF80000
FFF80000
FFF80000
FFFFFFF8
FFFFFFF8
FFFFFFF8
FFFFFFF8
FFFFFFF8
FFFFFFF8
FFFFFFF8
FFFFFFF8
FFFFFFF8
FFFFFFF8
FFFFFFF8
FFFFFFF8
FFFFFFF8
ENDCHAR
STARTCHAR A
ENCODING 65
SWIDTH 488 0
DWIDTH 32 0
BBX 29 45 0 0
BITMAP
FFFFFFF8
FFFFFFF8
FFFFFFF8
FFFFFFF8
FFFFFFF8
FFFFFFF8
FFFFFFF8
FFFFFFF8
FFFFFFF8
FFFFFFF8
FFFFFFF8
FFFFFFF8
FFFFFFF8
FFF8FFF8
FFF8FFF8
FFF8FFF8
FFFFFFF8
FFFFFFF8
FFFFFFF8
FFFFFFF8
FFFFFFF8
FFFFFFF8
FFFFFFF8
FFFFFFF8
FFFFFFF8
FFFFFFF8
FFFFFFF8
FFFFFFF8
FFFFFFF8
FFF8FFF8
FFF8FFF8
FFF8FFF8
FFF8FFF8
FFF8FFF8
FFF8FFF8
FFF8FFF8
FFF8FFF8
FFF8FFF8
FFF8FFF8
FFF8FFF8
FFF8FFF8
FFF8FFF8
FFF8FFF8
FFF8FFF8
FFF8FFF8
ENDCHAR
STARTCHAR B
ENCODING 66
SWIDTH 488 0
DWIDTH 32 0
BBX 29 45 0 0
BITMAP
FFFFFFF8
FFFFFFF8
FFFFFFF8
FFFFFFF8
FFFFFFF8
FFFFFFF8
FFFFFFF8
FFFFFFF8
FFFFFFF8
FFFFFFF8
FFFFFFF8
FFFFFFF8
FFFFFFF8
FFF8FFF8
FFF8FFF8
FFF8FFF8
FFFFFFF8
FFFFFFF8
FFFFFFF0
FFFFFFE0
FFFFFFC0
FFFFFF80
FFFFFF00
FFFFFE00
FFFFFFF8
FFFFFFF8
FFFFFFF8
FFFFFFF8
FFFFFFF8
FFF8FFF8
FFF8FFF8
FFF8FFF8
FFFFFFF8
FFFFFFF8
FFFFFFF8
FFFFFFF8
FFFFFFF8
FFFFFFF8
FFFFFFF8
FFFFFFF8
FFFFFFF8
FFFFFFF8
FFFFFFF8
FFFFFFF8
FFFFFFF8
ENDCHAR
STARTCHAR C
ENCODING 67
SWIDTH 488 0
DWIDTH 32 0
BBX 29 45 0 0
BITMAP
FFFFFFF8
FFFFFFF8
FFFFFFF8
FFFFFFF8
FFFFFFF8
FFFFFFF8
FFFFFFF8
FFFFFFF8
FFFFFFF8
FFFFFFF8
FFFFFFF8
FFFFFFF8
FFFFFFF8
FFF80000
FFF80000
FFF80000
FFF80000
FFF80000
FFF80000
FFF80000
FFF80000
FFF80000
FFF80000
FFF80000
FFF80000
FFF80000
FFF80000
FFF80000
FFF80000
FFF80000
FFF80000
FFF80000
FFFFFFF8
FFFFFFF8
FFFFFFF8
FFFFFFF8
FFFFFFF8
FFFFFFF8
FFFFFFF8
FFFFFFF8
FFFFFFF8
FFFFFFF8
FFFFFFF8
FFFFFFF8
FFFFFFF8
ENDCHAR
STARTCHAR D
ENCODING 68
SWIDTH 488 0
DWIDTH 32 0
BBX 29 58 0 -13
BITMAP
FFFFFFF8
FFFFFFF8
FFFFFFF8
FFFFFFF8
FFFFFFF8
FFFFFFF8
FFFFFFF8
FFFFFFF8
FFFFFFF8
FFFFFFF8
FFFFFFF8
FFFFFFF8
FFFFFFF8
FFF8FFF8
FFF8FFF8
FFF8FFF8
FFF8FFF8
FFF8FFF8
FFF8FFF8
FFF8FFF8
FFF8FFF8
FFF8FFF8
FFF8FFF8
FFF9FFF8
FFFBFFF8
FFFFFFF8
FFFFFFF8
FFFFFFF8
FFFFFFF8
FFFFFFF0
FFFFFFE0
FFFFFFC0
FFFFFF80
FFFFFF00
FFFFFE00
FFFFFC00
FFFFF800
FFFFF000
FFFFE000
FFFFC000
FFFF8000
FFFF0000
FFFE0000
FFFC0000
FFF80000
FFF00000
FFE00000
FFC00000
FF800000
FF000000
FE000000
FC000000
F8000000
F0000000
E0000000
C0000000
80000000
80000000
ENDCHAR
STARTCHAR E
ENCODING 69
SWIDTH 488 0
DWIDTH 32 0
BBX 29 45 0 0
BITMAP
FFFFFFF8
FFFFFFF8
FFFFFFF8
FFFFFFF8
FFFFFFF8
FFFFFFF8
FFFFFFF8
FFFFFFF8
FFFFFFF8
FFFFFFF8
FFFFFFF8
FFFFFFF8
FFFFFFF8
FFF80000
FFF80000
FFF80000
FFFFFFF8
FFFFFFF8
FFFFFFF8
FFFFFFF8
FFFFFFF8
FFFFFFF8
FFFFFFF8
FFFFFFF8
FFFFFFF8
FFFFFFF8
FFFFFFF8
FFFFFFF8
FFFFFFF8
FFF80000
FFF80000
FFF80000
FFFFFFF8
FFFFFFF8
FFFFFFF8
FFFFFFF8
FFFFFFF8
FFFFFFF8
FFFFFFF8
FFFFFFF8
FFFFFFF8
FFFFFFF8
FFFFFFF8
FFFFFFF8
FFFFFFF8
ENDCHAR
STARTCHAR F
ENCODING 70
SWIDTH 488 0
DWIDTH 32 0
BBX 29 45 0 0
BITMAP
FFFFFFF8
FFFFFFF8
FFFFFFF8
FFFFFFF8
FFFFFFF8
FFFFFFF8
FFFFFFF8
FFFFFFF8
FFFFFFF8
FFFFFFF8
FFFFFFF8
FFFFFFF8
FFFFFFF8
FFF80000
FFF80000
FFF80000
FFFFFFF8
FFFFFFF8
FFFFFFF8
FFFFFFF8
FFFFFFF8
FFFFFFF8
FFFFFFF8
FFFFFFF8
FFFFFFF8
FFFFFFF8
FFFFFFF8
FFFFFFF8
FFFFFFF8
FFF80000
FFF80000
FFF80000
FFF80000
FFF80000
FFF80000
FFF80000
FFF80000
FFF80000
FFF80000
FFF80000
FFF80000
FFF80000
FFF80000
FFF80000
FFF80000
ENDCHAR
STARTCHAR G
ENCODING 71
SWIDTH 488 0
DWIDTH 32 0
BBX 29 45 0 0
BITMAP
FFFFFFF8
FFFFFFF8
FFFFFFF8
FFFFFFF8
FFFFFFF8
FFFFFFF8
FFFFFFF8
FFFFFFF8
FFFFFFF8
FFFFFFF8
FFFFFFF8
FFFFFFF8
FFFFFFF8
FFF80000
FFF80000
FFF80000
FFF88000
FFF88000
FFF8C000
FFF8E000
FFF8F000
FFF8F800
FFF8FC00
FFF8FE00
FFF8FF00
FFF8FF80
FFF8FFC0
FFF8FFE0
FFF8FFF0
FFF8FFF8
FFF8FFF8
FFF8FFF8
FFFFFFF8
FFFFFFF8
FFFFFFF8
FFFFFFF8
FFFFFFF8
FFFFFFF8
FFFFFFF8
FFFFFFF8
FFFFFFF8
FFFFFFF8
FFFFFFF8
FFFFFFF8
FFFFFFF8
ENDCHAR
STARTCHAR H
ENCODING 72
SWIDTH 488 0
DWIDTH 32 0
BBX 29 45 0 0
BITMAP
FFF8FFF8
FFF8FFF8
FFF8FFF8
FFF8FFF8
FFF8FFF8
FFF8FFF8
FFF8FFF8
FFF8FFF8
FFF8FFF8
FFF8FFF8
FFF8FFF8
FFF8FFF8
FFF8FFF8
FFF8FFF8
FFF8FFF8
FFF8FFF8
FFFFFFF8
FFFFFFF8
FFFFFFF8
FFFFFFF8
FFFFFFF8
FFFFFFF8
FFFFFFF8
FFFFFFF8
FFFFFFF8
FFFFFFF8
FFFFFFF8
FFFFFFF8
FFFFFFF8
FFF8FFF8
FFF8FFF8
FFF8FFF8
FFF8FFF8
FFF8FFF8
FFF8FFF8
FFF8FFF8
FFF8FFF8
FFF8FFF8
FFF8FFF8
FFF8FFF8
FFF8FFF8
FFF8FFF8
FFF8FFF8
FFF8FFF8
FFF8FFF8
ENDCHAR
STARTCHAR I
ENCODING 73
SWIDTH 244 0
DWIDTH 16 0
BBX 13 45 0 0
BITMAP
FFF8
FFF8
FFF8
FFF8
FFF8
FFF8
FFF8
FFF8
FFF8
FFF8
FFF8
FFF8
FFF8
FFF8
FFF8
FFF8
FFF8
FFF8
FFF8
FFF8
FFF8
FFF8
FFF8
FFF8
FFF8
FFF8
FFF8
FFF8
FFF8
FFF8
FFF8
FFF8
FFF8
FFF8
FFF8
FFF8
FFF8
FFF8
FFF8
FFF8
FFF8
FFF8
FFF8
FFF8
FFF8
ENDCHAR
STARTCHAR J
ENCODING 74
SWIDTH 488 0
DWIDTH 32 0
BBX 29 45 0 0
BITMAP
0000FFF8
0000FFF8
0000FFF8
0000FFF8
0000FFF8
0000FFF8
0000FFF8
0000FFF8
0000FFF8
0000FFF8
0000FFF8
0000FFF8
0000FFF8
0000FFF8
0000FFF8
0000FFF8
0000FFF8
0000FFF8
0000FFF8
0000FFF8
0000FFF8
0000FFF8
0000FFF8
0000FFF8
0000FFF8
0000FFF8
0000FFF8
0000FFF8
0000FFF8
0000FFF8
0000FFF8
0000FFF8
FFFFFFF8
FFFFFFF8
FFFFFFF8
FFFFFFF8
FFFFFFF8
FFFFFFF8
FFFFFFF8
FFFFFFF8
FFFFFFF8
FFFFFFF8
FFFFFFF8
FFFFFFF8
FFFFFFF8
ENDCHAR
STARTCHAR K
ENCODING 75
SWIDTH 488 0
DWIDTH 32 0
BBX 29 45 0 0
BITMAP
FFF8FFF8
FFF8FFF8
FFF8FFF8
FFF8FFF8
FFF8FFF8
FFF8FFF8
FFF8FFF8
FFF8FFF8
FFF8FFF8
FFF8FFF8
FFF8FFF8
FFF8FFF8
FFF8FFF8
FFF8FFF8
FFF8FFF8
FFF8FFF8
FFFFFFF8
FFFFFFF8
FFFFFFF0
FFFFFFE0
FFFFFFC0
FFFFFF80
FFFFFF00
FFFFFE00
FFFFFFF8
FFFFFFF8
FFFFFFF8
FFFFFFF8
FFFFFFF8
FFF8FFF8
FFF8FFF8
FFF8FFF8
FFF8FFF8
FFF8FFF8
FFF8FFF8
FFF8FFF8
FFF8FFF8
FFF8FFF8
FFF8FFF8
FFF8FFF8
FFF8FFF8
FFF8FFF8
FFF8FFF8
FFF8FFF8
FFF8FFF8
ENDCHAR
STARTCHAR L
ENCODING 76
SWIDTH 488 0
DWIDTH 32 0
BBX 29 45 0 0
BITMAP
FFF80000
FFF80000
FFF80000
FFF80000
FFF80000
FFF80000
FFF80000
FFF80000
FFF80000
FFF80000
FFF80000
FFF80000
FFF80000
FFF80000
FFF80000
FFF80000
FFF80000
FFF80000
FFF80000
FFF80000
FFF80000
FFF80000
FFF80000
FFF80000
FFF80000
FFF80000
FFF80000
FFF80000
FFF80000
FFF80000
FFF80000
FFF80000
FFFFFFF8
FFFFFFF8
FFFFFFF8
FFFFFFF8
FFFFFFF8
FFFFFFF8
FFFFFFF8
FFFFFFF8
FFFFFFF8
FFFFFFF8
FFFFFFF8
FFFFFFF8
FFFFFFF8
ENDCHAR
STARTCHAR M
ENCODING 77
SWIDTH 732 0
DWIDTH 48 0
BBX 44 45 0 0
BITMAP
FFFFFFFFFFF0
FFFFFFFFFFF0
FFFFFFFFFFF0
FFFFFFFFFFF0
FFFFFFFFFFF0
FFFFFFFFFFF0
FFFFFFFFFFF0
FFFFFFFFFFF0
FFFFFFFFFFF0
FFFFFFFFFFF0
FFFFFFFFFFF0
FFFFFFFFFFF0
FFFFFFFFFFF0
FFF8FFF8FFF0
FFF8FFF8FFF0
FFF8FFF8FFF0
FFF8FFF8FFF0
FFF8FFF8FFF0
FFF8FFF8FFF0
FFF8FFF8FFF0
FFF8FFF8FFF0
FFF8FFF8FFF0
FFF8FFF8FFF0
FFF8FFF8FFF0
FFF8FFF8FFF0
FFF8FFF8FFF0
FFF8FFF8FFF0
FFF8FFF8FFF0
FFF8FFF8FFF0
FFF8FFF8FFF0
FFF8FFF8FFF0
FFF8FFF8FFF0
FFF8FFF8FFF0
FFF8FFF8FFF0
FFF8FFF8FFF0
FFF8FFF8FFF0
FFF8FFF8FFF0
FFF8FFF8FFF0
FFF8FFF8FFF0
FFF8FFF8FFF0
FFF8FFF8FFF0
FFF8FFF8FFF0
FFF8FFF8FFF0
FFF8FFF8FFF0
FFF8FFF8FFF0
ENDCHAR
STARTCHAR N
ENCODING 78
SWIDTH 488 0
DWIDTH 32 0
BBX 29 45 0 0
BITMAP
FFFFFFF8
FFFFFFF8
FFFFFFF8
FFFFFFF8
FFFFFFF8
FFFFFFF8
FFFFFFF8
FFFFFFF8
FFFFFFF8
FFFFFFF8
FFFFFFF8
FFFFFFF8
FFFFFFF8
FFF8FFF8
FFF8FFF8
FFF8FFF8
FFF8FFF8
FFF8FFF8
FFF8FFF8
FFF8FFF8
FFF8FFF8
FFF8FFF8
FFF8FFF8
FFF8FFF8
FFF8FFF8
FFF8FFF8
FFF8FFF8
FFF8FFF8
FFF8FFF8
FFF8FFF8
FFF8FFF8
FFF8FFF8
FFF8FFF8
FFF8FFF8
FFF8FFF8
FFF8FFF8
FFF8FFF8
FFF8FFF8
FFF8FFF8
FFF8FFF8
FFF8FFF8
FFF8FFF8
FFF8FFF8
FFF8FFF8
FFF8FFF8
ENDCHAR
STARTCHAR O
ENCODING 79
SWIDTH 488 0
DWIDTH 32 0
BBX 29 45 0 0
BITMAP
FFFFFFF8
FFFFFFF8
FFFFFFF8
FFFFFFF8
FFFFFFF8
FFFFFFF8
FFFFFFF8
FFFFFFF8
FFFFFFF8
FFFFFFF8
FFFFFFF8
FFFFFFF8
FFFFFFF8
FFF8FFF8
FFF8FFF8
FFF8FFF8
FFF8FFF8
FFF8FFF8
FFF8FFF8
FFF8FFF8
FFF8FFF8
FFF8FFF8
FFF8FFF8
FFF8FFF8
FFF8FFF8
FFF8FFF8
FFF8FFF8
FFF8FFF8
FFF8FFF8
FFF8FFF8
FFF8FFF8
FFF8FFF8
FFFFFFF8
FFFFFFF8
FFFFFFF8
FFFFFFF8
FFFFFFF8
FFFFFFF8
FFFFFFF8
FFFFFFF8
FFFFFFF8
FFFFFFF8
FFFFFFF8
FFFFFFF8
FFFFFFF8
ENDCHAR
STARTCHAR P
ENCODING 80
SWIDTH 488 0
DWIDTH 32 0
BBX 29 45 0 0
BITMAP
FFFFFFF8
FFFFFFF8
FFFFFFF8
FFFFFFF8
FFFFFFF8
FFFFFFF8
FFFFFFF8
FFFFFFF8
FFFFFFF8
FFFFFFF8
FFFFFFF8
FFFFFFF8
FFFFFFF8
FFF8FFF8
FFF8FFF8
FFF8FFF8
FFFFFFF8
FFFFFFF8
FFFFFFF8
FFFFFFF8
FFFFFFF8
FFFFFFF8
FFFFFFF8
FFFFFFF8
FFFFFFF8
FFFFFFF8
FFFFFFF8
FFFFFFF8
FFFFFFF8
FFF80000
FFF80000
FFF80000
FFF80000
FFF80000
FFF80000
FFF80000
FFF80000
FFF80000
FFF80000
FFF80000
FFF80000
FFF80000
FFF80000
FFF80000
FFF80000
ENDCHAR
STARTCHAR Q
ENCODING 81
SWIDTH 488 0
DWIDTH 32 0
BBX 29 58 0 -13
BITMAP
FFFFFFF8
FFFFFFF8
FFFFFFF8
FFFFFFF8
FFFFFFF8
FFFFFFF8
FFFFFFF8
FFFFFFF8
FFFFFFF8
FFFFFFF8
FFFFFFF8
FFFFFFF8
FFFFFFF8
FFF8FFF8
FFF8FFF8
FFF8FFF8
FFF8FFF8
FFF8FFF8
FFF8FFF8
FFF8FFF8
FFF8FFF8
FFF8FFF8
FFF8FFF8
FFF8FFF8
FFF8FFF8
FFF8FFF8
FFF8FFF8
FFF8FFF8
FFF8FFF8
7FF8FFF8
3FF8FFF8
1FF8FFF8
0FF8FFF8
07F8FFF8
03F8FFF8
03F8FFF8
01F8FFF8
00F8FFF8
0078FFF8
0038FFF8
0018FFF8
0008FFF8
0000FFF8
0000FFF8
0000FFF8
0000FFF8
00007FF8
00003FF8
00001FF8
00000FF8
000007F8
000003F8
000001F8
000000F8
00000078
00000038
00000018
00000008
ENDCHAR
STARTCHAR R
ENCODING 82
SWIDTH 488 0
DWIDTH 32 0
BBX 29 45 0 0
BITMAP
FFFFFFF8
FFFFFFF8
FFFFFFF8
FFFFFFF8
FFFFFFF8
FFFFFFF8
FFFFFFF8
FFFFFFF8
FFFFFFF8
FFFFFFF8
FFFFFFF8
FFFFFFF8
FFFFFFF8
FFF8FFF8
FFF8FFF8
FFF8FFF8
FFFFFFF8
FFFFFFF8
FFFFFFF0
FFFFFFE0
FFFFFFC0
FFFFFF80
FFFFFF00
FFFFFE00
FFFFFFF8
FFFFFFF8
FFFFFFF8
FFFFFFF8
FFFFFFF8
FFF8FFF8
FFF8FFF8
FFF8FFF8
FFF8FFF8
FFF8FFF8
FFF8FFF8
FFF8FFF8
FFF8FFF8
FFF8FFF8
FFF8FFF8
FFF8FFF8
FFF8FFF8
FFF8FFF8
FFF8FFF8
FFF8FFF8
FFF8FFF8
ENDCHAR
STARTCHAR S
ENCODING 83
SWIDTH 488 0
DWIDTH 32 0
BBX 29 45 0 0
BITMAP
FFFFFFF8
FFFFFFF8
FFFFFFF8
FFFFFFF8
FFFFFFF8
FFFFFFF8
FFFFFFF8
FFFFFFF8
FFFFFFF8
FFFFFFF8
FFFFFFF8
FFFFFFF8
FFFFFFF8
FFF80000
FFF80000
FFF80000
FFFFFFF8
FFFFFFF8
FFFFFFF8
FFFFFFF8
FFFFFFF8
FFFFFFF8
FFFFFFF8
FFFFFFF8
FFFFFFF8
FFFFFFF8
FFFFFFF8
FFFFFFF8
FFFFFFF8
0000FFF8
0000FFF8
0000FFF8
FFFFFFF8
FFFFFFF8
FFFFFFF8
FFFFFFF8
FFFFFFF8
FFFFFFF8
FFFFFFF8
FFFFFFF8
FFFFFFF8
FFFFFFF8
FFFFFFF8
FFFFFFF8
FFFFFFF8
ENDCHAR
STARTCHAR T
ENCODING 84
SWIDTH 488 0
DWIDTH 32 0
BBX 29 45 0 0
BITMAP
FFFFFFF8
FFFFFFF8
FFFFFFF8
FFFFFFF8
FFFFFFF8
FFFFFFF8
FFFFFFF8
FFFFFFF8
FFFFFFF8
FFFFFFF8
FFFFFFF8
FFFFFFF8
FFFFFFF8
00FFF800
00FFF800
00FFF800
00FFF800
00FFF800
00FFF800
00FFF800
00FFF800
00FFF800
00FFF800
00FFF800
00FFF800
00FFF800
00FFF800
00FFF800
00FFF800
00FFF800
00FFF800
00FFF800
00FFF800
00FFF800
00FFF800
00FFF800
00FFF800
00FFF800
00FFF800
00FFF800
00FFF800
00FFF800
00FFF800
00FFF800
00FFF800
ENDCHAR
STARTCHAR U
ENCODING 85
SWIDTH 488 0
DWIDTH 32 0
BBX 29 45 0 0
BITMAP
FFF8FFF8
FFF8FFF8
FFF8FFF8
FFF8FFF8
FFF8FFF8
FFF8FFF8
FFF8FFF8
FFF8FFF8
FFF8FFF8
FFF8FFF8
FFF8FFF8
FFF8FFF8
FFF8FFF8
FFF8FFF8
FFF8FFF8
FFF8FFF8
FFF8FFF8
FFF8FFF8
FFF8FFF8
FFF8FFF8
FFF8FFF8
FFF8FFF8
FFF8FFF8
FFF8FFF8
FFF8FFF8
FFF8FFF8
FFF8FFF8
FFF8FFF8
FFF8FFF8
FFF8FFF8
FFF8FFF8
FFF8FFF8
FFFFFFF8
FFFFFFF8
FFFFFFF8
FFFFFFF8
FFFFFFF8
FFFFFFF8
FFFFFFF8
FFFFFFF8
FFFFFFF8
FFFFFFF8
FFFFFFF8
FFFFFFF8
FFFFFFF8
ENDCHAR
STARTCHAR V
ENCODING 86
SWIDTH 488 0
DWIDTH 32 0
BBX 29 58 0 -13
BITMAP
FFF8FFF8
FFF8FFF8
FFF8FFF8
FFF8FFF8
FFF8FFF8
FFF8FFF8
FFF8FFF8
FFF8FFF8
FFF8FFF8
FFF8FFF8
FFF8FFF8
FFF8FFF8
FFF8FFF8
FFF8FFF8
FFF8FFF8
FFF8FFF8
FFF8FFF8
FFF8FFF8
FFF8FFF8
FFF8FFF8
FFF8FFF8
FFF8FFF8
FFF8FFF8
FFF9FFF8
FFFBFFF8
FFFFFFF8
FFFFFFF8
FFFFFFF8
FFFFFFF8
FFFFFFF0
FFFFFFE0
FFFFFFC0
FFFFFF80
FFFFFF00
FFFFFE00
FFFFFC00
FFFFF800
FFFFF000
FFFFE000
FFFFC000
FFFF8000
FFFF0000
FFFE0000
FFFC0000
FFF80000
FFF00000
FFE00000
FFC00000
FF800000
FF000000
FE000000
FC000000
F8000000
F0000000
E0000000
C0000000
80000000
80000000
ENDCHAR
STARTCHAR W
ENCODING 87
SWIDTH 732 0
DWIDTH 48 0
BBX 44 45 0 0
BITMAP
FFF8FFF8FFF0
FFF8FFF8FFF0
FFF8FFF8FFF0
FFF8FFF8FFF0
FFF8FFF8FFF0
FFF8FFF8FFF0
FFF8FFF8FFF0
FFF8FFF8FFF0
FFF8FFF8FFF0
FFF8FFF8FFF0
FFF8FFF8FFF0
FFF8FFF8FFF0
FFF8FFF8FFF0
FFF8FFF8FFF0
FFF8FFF8FFF0
FFF8FFF8FFF0
FFF8FFF8FFF0
FFF8FFF8FFF0
FFF8FFF8FFF0
FFF8FFF8FFF0
FFF8FFF8FFF0
FFF8FFF8FFF0
FFF8FFF8FFF0
FFF8FFF8FFF0
FFF8FFF8FFF0
FFF8FFF8FFF0
FFF8FFF8FFF0
FFF8FFF8FFF0
FFF8FFF8FFF0
FFF8FFF8FFF0
FFF8FFF8FFF0
FFF8FFF8FFF0
FFFFFFFFFFF0
FFFFFFFFFFF0
FFFFFFFFFFF0
FFFFFFFFFFF0
FFFFFFFFFFF0
FFFFFFFFFFF0
FFFFFFFFFFF0
FFFFFFFFFFF0
FFFFFFFFFFF0
FFFFFFFFFFF0
FFFFFFFFFFF0
FFFFFFFFFFF0
FFFFFFFFFFF0
ENDCHAR
STARTCHAR X
ENCODING 88
SWIDTH 488 0
DWIDTH 32 0
BBX 29 45 0 0
BITMAP
FFF8FFF8
FFF8FFF8
FFF8FFF8
FFF8FFF8
FFF8FFF8
FFF8FFF8
FFF8FFF8
FFF8FFF8
FFF8FFF8
FFF8FFF8
FFF8FFF8
FFF8FFF8
FFF8FFF8
FFF8FFF8
FFF8FFF8
FFF8FFF8
FFFFFFF8
FFFFFFF8
FFFFFFF0
FFFFFFE0
FFFFFFC0
03FFFF80
07FFFF00
0FFFFE00
1FFFFFF8
3FFFFFF8
7FFFFFF8
FFFFFFF8
FFFFFFF8
FFF8FFF8
FFF8FFF8
FFF8FFF8
FFF8FFF8
FFF8FFF8
FFF8FFF8
FFF8FFF8
FFF8FFF8
FFF8FFF8
FFF8FFF8
FFF8FFF8
FFF8FFF8
FFF8FFF8
FFF8FFF8
FFF8FFF8
FFF8FFF8
ENDCHAR
STARTCHAR Y
ENCODING 89
SWIDTH 488 0
DWIDTH 32 0
BBX 29 45 0 0
BITMAP
FFF8FFF8
FFF8FFF8
FFF8FFF8
FFF8FFF8
FFF8FFF8
FFF8FFF8
FFF8FFF8
FFF8FFF8
FFF8FFF8
FFF8FFF8
FFF8FFF8
FFF8FFF8
FFF8FFF8
FFF8FFF8
FFF8FFF8
FFF8FFF8
FFFFFFF8
FFFFFFF8
FFFFFFF8
FFFFFFF8
FFFFFFF8
FFFFFFF8
FFFFFFF8
FFFFFFF8
FFFFFFF8
FFFFFFF8
FFFFFFF8
FFFFFFF8
FFFFFFF8
00FFF800
00FFF800
00FFF800
00FFF800
00FFF800
00FFF800
00FFF800
00FFF800
00FFF800
00FFF800
00FFF800
00FFF800
00FFF800
00FFF800
00FFF800
00FFF800
ENDCHAR
STARTCHAR Z
ENCODING 90
SWIDTH 488 0
DWIDTH 32 0
BBX 29 45 0 0
BITMAP
FFFFFFF8
FFFFFFF8
FFFFFFF8
FFFFFFF8
FFFFFFF8
FFFFFFF8
FFFFFFF8
FFFFFFF8
FFFFFFF8
FFFFFFF8
FFFFFFF8
FFFFFFF8
FFFFFFF8
0000FFF8
0000FFF8
0000FFF8
FFFFFFF8
FFFFFFF8
FFFFFFF8
FFFFFFF8
FFFFFFF8
FFFFFFF8
FFFFFFF8
FFFFFFF8
FFFFFFF8
FFFFFFF8
FFFFFFF8
FFFFFFF8
FFFFFFF8
FFF80000
FFF80000
FFF80000
FFFFFFF8
FFFFFFF8
FFFFFFF8
FFFFFFF8
FFFFFFF8
FFFFFFF8
FFFFFFF8
FFFFFFF8
FFFFFFF8
FFFFFFF8
FFFFFFF8
FFFFFFF8
FFFFFFF8
ENDCHAR
STARTCHAR bracketleft
ENCODING 91
SWIDTH 390 0
DWIDTH 25 0
BBX 22 51 0 -3
BITMAP
FFFFFC
FFFFFC
FFFFFC
FFFFFC
FFFFFC
FFFFFC
FFFFFC
FFFFFC
FFFFFC
FFFFFC
FFFFFC
FFFFFC
FFFFFC
FFF800
FFF800
FFF800
FFF800
FFF800
FFF800
FFF800
FFF800
FFF800
FFF800
FFF800
FFF800
FFF800
FFF800
FFF800
FFF800
FFF800
FFF800
FFF800
FFF800
FFF800
FFF800
FFF800
FFF800
FFF800
FFFFFC
FFFFFC
FFFFFC
FFFFFC
FFFFFC
FFFFFC
FFFFFC
FFFFFC
FFFFFC
FFFFFC
FFFFFC
FFFFFC
FFFFFC
ENDCHAR
STARTCHAR backslash
ENCODING 92
SWIDTH 488 0
DWIDTH 32 0
BBX 29 48 0 -2
BITMAP
80000000
C0000000
E0000000
F0000000
F8000000
FC000000
FE000000
FF000000
FF800000
FFC00000
FFE00000
FFF00000
FFF80000
FFFC0000
FFFE0000
FFFF0000
FFFF8000
FFFFC000
FFFFE000
FFFFF000
7FFFF800
3FFFFC00
1FFFFE00
0FFFFF00
07FFFF80
03FFFFC0
01FFFFE0
00FFFFF0
007FFFF8
003FFFF8
001FFFF8
000FFFF8
0007FFF8
0003FFF8
0001FFF8
0000FFF8
00007FF8
00003FF8
00001FF8
00000FF8
000007F8
000003F8
000001F8
000000F8
00000078
00000038
00000018
00000008
ENDCHAR
STARTCHAR bracketright
ENCODING 93
SWIDTH 390 0
DWIDTH 25 0
BBX 22 51 0 -3
BITMAP
FFFFFC
FFFFFC
FFFFFC
FFFFFC
FFFFFC
FFFFFC
FFFFFC
FFFFFC
FFFFFC
FFFFFC
FFFFFC
FFFFFC
FFFFFC
003FFC
003FFC
003FFC
003FFC
003FFC
003FFC
003FFC
003FFC
003FFC
003FFC
003FFC
003FFC
003FFC
003FFC
003FFC
003FFC
003FFC
003FFC
003FFC
003FFC
003FFC
003FFC
003FFC
003FFC
003FFC
FFFFFC
FFFFFC
FFFFFC
FFFFFC
FFFFFC
FFFFFC
FFFFFC
FFFFFC
FFFFFC
FFFFFC
FFFFFC
FFFFFC
FFFFFC
ENDCHAR
STARTCHAR asciicircum
ENCODING 94
SWIDTH 244 0
DWIDTH 16 0
BBX 13 19 0 26
BITMAP
FFF8
FFF8
FFF8
FFF8
FFF8
FFF8
FFF8
FFF8
FFF8
FFF8
FFF8
FFF8
FFF8
FFF8
FFF8
FFF8
FFF8
FFF8
FFF8
ENDCHAR
STARTCHAR underscore
ENCODING 95
SWIDTH 488 0
DWIDTH 32 0
BBX 29 13 0 0
BITMAP
FFFFFFF8
FFFFFFF8
FFFFFFF8
FFFFFFF8
FFFFFFF8
FFFFFFF8
FFFFFFF8
FFFFFFF8
FFFFFFF8
FFFFFFF8
FFFFFFF8
FFFFFFF8
FFFFFFF8
ENDCHAR
STARTCHAR grave
ENCODING 96
SWIDTH 244 0
DWIDTH 16 0
BBX 13 19 0 26
BITMAP
FFF8
FFF8
FFF8
FFF8
FFF8
FFF8
FFF8
FFF8
FFF8
FFF8
FFF8
FFF8
FFF8
FFF8
FFF8
FFF8
FFF8
FFF8
FFF8
ENDCHAR
STARTCHAR a
ENCODING 97
SWIDTH 488 0
DWIDTH 32 0
BBX 29 45 0 0
BITMAP
FFFFFFF8
FFFFFFF8
FFFFFFF8
FFFFFFF8
FFFFFFF8
FFFFFFF8
FFFFFFF8
FFFFFFF8
FFFFFFF8
FFFFFFF8
FFFFFFF8
FFFFFFF8
FFFFFFF8
FFF8FFF8
FFF8FFF8
FFF8FFF8
FFFFFFF8
FFFFFFF8
FFFFFFF8
FFFFFFF8
FFFFFFF8
FFFFFFF8
FFFFFFF8
FFFFFFF8
FFFFFFF8
FFFFFFF8
FFFFFFF8
FFFFFFF8
FFFFFFF8
FFF8FFF8
FFF8FFF8
FFF8FFF8
FFF8FFF8
FFF8FFF8
FFF8FFF8
FFF8FFF8
FFF8FFF8
FFF8FFF8
FFF8FFF8
FFF8FFF8
FFF8FFF8
FFF8FFF8
FFF8FFF8
FFF8FFF8
FFF8FFF8
ENDCHAR
STARTCHAR b
ENCODING 98
SWIDTH 488 0
DWIDTH 32 0
BBX 29 45 0 0
BITMAP
FFFFFFF8
FFFFFFF8
FFFFFFF8
FFFFFFF8
FFFFFFF8
FFFFFFF8
FFFFFFF8
FFFFFFF8
FFFFFFF8
FFFFFFF8
FFFFFFF8
FFFFFFF8
FFFFFFF8
FFF8FFF8
FFF8FFF8
FFF8FFF8
FFFFFFF8
FFFFFFF8
FFFFFFF0
FFFFFFE0
FFFFFFC0
FFFFFF80
FFFFFF00
FFFFFE00
FFFFFFF8
FFFFFFF8
FFFFFFF8
FFFFFFF8
FFFFFFF8
FFF8FFF8
FFF8FFF8
FFF8FFF8
FFFFFFF8
FFFFFFF8
FFFFFFF8
FFFFFFF8
FFFFFFF8
FFFFFFF8
FFFFFFF8
FFFFFFF8
FFFFFFF8
FFFFFFF8
FFFFFFF8
FFFFFFF8
FFFFFFF8
ENDCHAR
STARTCHAR c
ENCODING 99
SWIDTH 488 0
DWIDTH 32 0
BBX 29 45 0 0
BITMAP
FFFFFFF8
FFFFFFF8
FFFFFFF8
FFFFFFF8
FFFFFFF8
FFFFFFF8
FFFFFFF8
FFFFFFF8
FFFFFFF8
FFFFFFF8
FFFFFFF8
FFFFFFF8
FFFFFFF8
FFF80000
FFF80000
FFF80000
FFF80000
FFF80000
FFF80000
FFF80000
FFF80000
FFF80000
FFF80000
FFF80000
FFF80000
FFF80000
FFF80000
FFF80000
FFF80000
FFF80000
FFF80000
FFF80000
FFFFFFF8
FFFFFFF8
FFFFFFF8
FFFFFFF8
FFFFFFF8
FFFFFFF8
FFFFFFF8
FFFFFFF8
FFFFFFF8
FFFFFFF8
FFFFFFF8
FFFFFFF8
FFFFFFF8
ENDCHAR
STARTCHAR d
ENCODING 100
SWIDTH 488 0
DWIDTH 32 0
BBX 29 58 0 -13
BITMAP
FFFFFFF8
FFFFFFF8
FFFFFFF8
FFFFFFF8
FFFFFFF8
FFFFFFF8
FFFFFFF8
FFFFFFF8
FFFFFFF8
FFFFFFF8
FFFFFFF8
FFFFFFF8
FFFFFFF8
FFF8FFF8
FFF8FFF8
FFF8FFF8
FFF8FFF8
FFF8FFF8
FFF8FFF8
FFF8FFF8
FFF8FFF8
FFF8FFF8
FFF8FFF8
FFF9FFF8
FFFBFFF8
FFFFFFF8
FFFFFFF8
FFFFFFF8
FFFFFFF8
FFFFFFF0
FFFFFFE0
FFFFFFC0
FFFFFF80
FFFFFF00
FFFFFE00
FFFFFC00
FFFFF800
FFFFF000
FFFFE000
FFFFC000
FFFF8000
FFFF0000
FFFE0000
FFFC0000
FFF80000
FFF00000
FFE00000
FFC00000
FF800000
FF000000
FE000000
FC000000
F8000000
F0000000
E0000000
C0000000
80000000
80000000
ENDCHAR
STARTCHAR e
ENCODING 101
SWIDTH 488 0
DWIDTH 32 0
BBX 29 45 0 0
BITMAP
FFFFFFF8
FFFFFFF8
FFFFFFF8
FFFFFFF8
FFFFFFF8
FFFFFFF8
FFFFFFF8
FFFFFFF8
FFFFFFF8
FFFFFFF8
FFFFFFF8
FFFFFFF8
FFFFFFF8
FFF80000
FFF80000
FFF80000
FFFFFFF8
FFFFFFF8
FFFFFFF8
FFFFFFF8
FFFFFFF8
FFFFFFF8
FFFFFFF8
FFFFFFF8
FFFFFFF8
FFFFFFF8
FFFFFFF8
FFFFFFF8
FFFFFFF8
FFF80000
FFF80000
FFF80000
FFFFFFF8
FFFFFFF8
FFFFFFF8
FFFFFFF8
FFFFFFF8
FFFFFFF8
FFFFFFF8
FFFFFFF8
FFFFFFF8
FFFFFFF8
FFFFFFF8
FFFFFFF8
FFFFFFF8
ENDCHAR
STARTCHAR f
ENCODING 102
SWIDTH 488 0
DWIDTH 32 0
BBX 29 45 0 0
BITMAP
FFFFFFF8
FFFFFFF8
FFFFFFF8
FFFFFFF8
FFFFFFF8
FFFFFFF8
FFFFFFF8
FFFFFFF8
FFFFFFF8
FFFFFFF8
FFFFFFF8
FFFFFFF8
FFFFFFF8
FFF80000
FFF80000
FFF80000
FFFFFFF8
FFFFFFF8
FFFFFFF8
FFFFFFF8
FFFFFFF8
FFFFFFF8
FFFFFFF8
FFFFFFF8
FFFFFFF8
FFFFFFF8
FFFFFFF8
FFFFFFF8
FFFFFFF8
FFF80000
FFF80000
FFF80000
FFF80000
FFF80000
FFF80000
FFF80000
FFF80000
FFF80000
FFF80000
FFF80000
FFF80000
FFF80000
FFF80000
FFF80000
FFF80000
ENDCHAR
STARTCHAR g
ENCODING 103
SWIDTH 488 0
DWIDTH 32 0
BBX 29 45 0 0
BITMAP
FFFFFFF8
FFFFFFF8
FFFFFFF8
FFFFFFF8
FFFFFFF8
FFFFFFF8
FFFFFFF8
FFFFFFF8
FFFFFFF8
FFFFFFF8
FFFFFFF8
FFFFFFF8
FFFFFFF8
FFF80000
FFF80000
FFF80000
FFF88000
FFF88000
FFF8C000
FFF8E000
FFF8F000
FFF8F800
FFF8FC00
FFF8FE00
FFF8FF00
FFF8FF80
FFF8FFC0
FFF8FFE0
FFF8FFF0
FFF8FFF8
FFF8FFF8
FFF8FFF8
FFFFFFF8
FFFFFFF8
FFFFFFF8
FFFFFFF8
FFFFFFF8
FFFFFFF8
FFFFFFF8
FFFFFFF8
FFFFFFF8
FFFFFFF8
FFFFFFF8
FFFFFFF8
FFFFFFF8
ENDCHAR
STARTCHAR h
ENCODING 104
SWIDTH 488 0
DWIDTH 32 0
BBX 29 45 0 0
BITMAP
FFF8FFF8
FFF8FFF8
FFF8FFF8
FFF8FFF8
FFF8FFF8
FFF8FFF8
FFF8FFF8
FFF8FFF8
FFF8FFF8
FFF8FFF8
FFF8FFF8
FFF8FFF8
FFF8FFF8
FFF8FFF8
FFF8FFF8
FFF8FFF8
FFFFFFF8
FFFFFFF8
FFFFFFF8
FFFFFFF8
FFFFFFF8
FFFFFFF8
FFFFFFF8
FFFFFFF8
FFFFFFF8
FFFFFFF8
FFFFFFF8
FFFFFFF8
FFFFFFF8
FFF8FFF8
FFF8FFF8
FFF8FFF8
FFF8FFF8
FFF8FFF8
FFF8FFF8
FFF8FFF8
FFF8FFF8
FFF8FFF8
FFF8FFF8
FFF8FFF8
FFF8FFF8
FFF8FFF8
FFF8FFF8
FFF8FFF8
FFF8FFF8
ENDCHAR
STARTCHAR i
ENCODING 105
SWIDTH 244 0
DWIDTH 16 0
BBX 13 45 0 0
BITMAP
FFF8
FFF8
FFF8
FFF8
FFF8
FFF8
FFF8
FFF8
FFF8
FFF8
FFF8
FFF8
FFF8
FFF8
FFF8
FFF8
FFF8
FFF8
FFF8
FFF8
FFF8
FFF8
FFF8
FFF8
FFF8
FFF8
FFF8
FFF8
FFF8
FFF8
FFF8
FFF8
FFF8
FFF8
FFF8
FFF8
FFF8
FFF8
FFF8
FFF8
FFF8
FFF8
FFF8
FFF8
FFF8
ENDCHAR
STARTCHAR j
ENCODING 106
SWIDTH 488 0
DWIDTH 32 0
BBX 29 45 0 0
BITMAP
0000FFF8
0000FFF8
0000FFF8
0000FFF8
0000FFF8
0000FFF8
0000FFF8
0000FFF8
0000FFF8
0000FFF8
0000FFF8
0000FFF8
0000FFF8
0000FFF8
0000FFF8
0000FFF8
0000FFF8
0000FFF8
0000FFF8
0000FFF8
0000FFF8
0000FFF8
0000FFF8
0000FFF8
0000FFF8
0000FFF8
0000FFF8
0000FFF8
0000FFF8
0000FFF8
0000FFF8
0000FFF8
FFFFFFF8
FFFFFFF8
FFFFFFF8
FFFFFFF8
FFFFFFF8
FFFFFFF8
FFFFFFF8
FFFFFFF8
FFFFFFF8
FFFFFFF8
FFFFFFF8
FFFFFFF8
FFFFFFF8
ENDCHAR
STARTCHAR k
ENCODING 107
SWIDTH 488 0
DWIDTH 32 0
BBX 29 45 0 0
BITMAP
FFF8FFF8
FFF8FFF8
FFF8FFF8
FFF8FFF8
FFF8FFF8
FFF8FFF8
FFF8FFF8
FFF8FFF8
FFF8FFF8
FFF8FFF8
FFF8FFF8
FFF8FFF8
FFF8FFF8
FFF8FFF8
FFF8FFF8
FFF8FFF8
FFFFFFF8
FFFFFFF8
FFFFFFF0
FFFFFFE0
FFFFFFC0
FFFFFF80
FFFFFF00
FFFFFE00
FFFFFFF8
FFFFFFF8
FFFFFFF8
FFFFFFF8
FFFFFFF8
FFF8FFF8
FFF8FFF8
FFF8FFF8
FFF8FFF8
FFF8FFF8
FFF8FFF8
FFF8FFF8
FFF8FFF8
FFF8FFF8
FFF8FFF8
FFF8FFF8
FFF8FFF8
FFF8FFF8
FFF8FFF8
FFF8FFF8
FFF8FFF8
ENDCHAR
STARTCHAR l
ENCODING 108
SWIDTH 488 0
DWIDTH 32 0
BBX 29 45 0 0
BITMAP
FFF80000
FFF80000
FFF80000
FFF80000
FFF80000
FFF80000
FFF80000
FFF80000
FFF80000
FFF80000
FFF80000
FFF80000
FFF80000
FFF80000
FFF80000
FFF80000
FFF80000
FFF80000
FFF80000
FFF80000
FFF80000
FFF80000
FFF80000
FFF80000
FFF80000
FFF80000
FFF80000
FFF80000
FFF80000
FFF80000
FFF80000
FFF80000
FFFFFFF8
FFFFFFF8
FFFFFFF8
FFFFFFF8
FFFFFFF8
FFFFFFF8
FFFFFFF8
FFFFFFF8
FFFFFFF8
FFFFFFF8
FFFFFFF8
FFFFFFF8
FFFFFFF8
ENDCHAR
STARTCHAR m
ENCODING 109
SWIDTH 732 0
DWIDTH 48 0
BBX 44 45 0 0
BITMAP
FFFFFFFFFFF0
FFFFFFFFFFF0
FFFFFFFFFFF0
FFFFFFFFFFF0
FFFFFFFFFFF0
FFFFFFFFFFF0
FFFFFFFFFFF0
FFFFFFFFFFF0
FFFFFFFFFFF0
FFFFFFFFFFF0
FFFFFFFFFFF0
FFFFFFFFFFF0
FFFFFFFFFFF0
FFF8FFF8FFF0
FFF8FFF8FFF0
FFF8FFF8FFF0
FFF8FFF8FFF0
FFF8FFF8FFF0
FFF8FFF8FFF0
FFF8FFF8FFF0
FFF8FFF8FFF0
FFF8FFF8FFF0
FFF8FFF8FFF0
FFF8FFF8FFF0
FFF8FFF8FFF0
FFF8FFF8FFF0
FFF8FFF8FFF0
FFF8FFF8FFF0
FFF8FFF8FFF0
FFF8FFF8FFF0
FFF8FFF8FFF0
FFF8FFF8FFF0
FFF8FFF8FFF0
FFF8FFF8FFF0
FFF8FFF8FFF0
FFF8FFF8FFF0
FFF8FFF8FFF0
FFF8FFF8FFF0
FFF8FFF8FFF0
FFF8FFF8FFF0
FFF8FFF8FFF0
FFF8FFF8FFF0
FFF8FFF8FFF0
FFF8FFF8FFF0
FFF8FFF8FFF0
ENDCHAR
STARTCHAR n
ENCODING 110
SWIDTH 488 0
DWIDTH 32 0
BBX 29 45 0 0
BITMAP
FFFFFFF8
FFFFFFF8
FFFFFFF8
FFFFFFF8
FFFFFFF8
FFFFFFF8
FFFFFFF8
FFFFFFF8
FFFFFFF8
FFFFFFF8
FFFFFFF8
FFFFFFF8
FFFFFFF8
FFF8FFF8
FFF8FFF8
FFF8FFF8
FFF8FFF8
FFF8FFF8
FFF8FFF8
FFF8FFF8
FFF8FFF8
FFF8FFF8
FFF8FFF8
FFF8FFF8
FFF8FFF8
FFF8FFF8
FFF8FFF8
FFF8FFF8
FFF8FFF8
FFF8FFF8
FFF8FFF8
FFF8FFF8
FFF8FFF8
FFF8FFF8
FFF8FFF8
FFF8FFF8
FFF8FFF8
FFF8FFF8
FFF8FFF8
FFF8FFF8
FFF8FFF8
FFF8FFF8
FFF8FFF8
FFF8FFF8
FFF8FFF8
ENDCHAR
STARTCHAR o
ENCODING 111
SWIDTH 488 0
DWIDTH 32 0
BBX 29 45 0 0
BITMAP
FFFFFFF8
FFFFFFF8
FFFFFFF8
FFFFFFF8
FFFFFFF8
FFFFFFF8
FFFFFFF8
FFFFFFF8
FFFFFFF8
FFFFFFF8
FFFFFFF8
FFFFFFF8
FFFFFFF8
FFF8FFF8
FFF8FFF8
FFF8FFF8
FFF8FFF8
FFF8FFF8
FFF8FFF8
FFF8FFF8
FFF8FFF8
FFF8FFF8
FFF8FFF8
FFF8FFF8
FFF8FFF8
FFF8FFF8
FFF8FFF8
FFF8FFF8
FFF8FFF8
FFF8FFF8
FFF8FFF8
FFF8FFF8
FFFFFFF8
FFFFFFF8
FFFFFFF8
FFFFFFF8
FFFFFFF8
FFFFFFF8
FFFFFFF8
FFFFFFF8
FFFFFFF8
FFFFFFF8
FFFFFFF8
FFFFFFF8
FFFFFFF8
ENDCHAR
STARTCHAR p
ENCODING 112
SWIDTH 488 0
DWIDTH 32 0
BBX 29 45 0 0
BITMAP
FFFFFFF8
FFFFFFF8
FFFFFFF8
FFFFFFF8
FFFFFFF8
FFFFFFF8
FFFFFFF8
FFFFFFF8
FFFFFFF8
FFFFFFF8
FFFFFFF8
FFFFFFF8
FFFFFFF8
FFF8FFF8
FFF8FFF8
FFF8FFF8
FFFFFFF8
FFFFFFF8
FFFFFFF8
FFFFFFF8
FFFFFFF8
FFFFFFF8
FFFFFFF8
FFFFFFF8
FFFFFFF8
FFFFFFF8
FFFFFFF8
FFFFFFF8
FFFFFFF8
FFF80000
FFF80000
FFF80000
FFF80000
FFF80000
FFF80000
FFF80000
FFF80000
FFF80000
FFF80000
FFF80000
FFF80000
FFF80000
FFF80000
FFF80000
FFF80000
ENDCHAR
STARTCHAR q
ENCODING 113
SWIDTH 488 0
DWIDTH 32 0
BBX 29 58 0 -13
BITMAP
FFFFFFF8
FFFFFFF8
FFFFFFF8
FFFFFFF8
FFFFFFF8
FFFFFFF8
FFFFFFF8
FFFFFFF8
FFFFFFF8
FFFFFFF8
FFFFFFF8
FFFFFFF8
FFFFFFF8
FFF8FFF8
FFF8FFF8
FFF8FFF8
FFF8FFF8
FFF8FFF8
FFF8FFF8
FFF8FFF8
FFF8FFF8
FFF8FFF8
FFF8FFF8
FFF8FFF8
FFF8FFF8
FFF8FFF8
FFF8FFF8
FFF8FFF8
FFF8FFF8
7FF8FFF8
3FF8FFF8
1FF8FFF8
0FF8FFF8
07F8FFF8
03F8FFF8
03F8FFF8
01F8FFF8
00F8FFF8
0078FFF8
0038FFF8
0018FFF8
0008FFF8
0000FFF8
0000FFF8
0000FFF8
0000FFF8
00007FF8
00003FF8
00001FF8
00000FF8
000007F8
000003F8
000001F8
000000F8
00000078
00000038
00000018
00000008
ENDCHAR
STARTCHAR r
ENCODING 114
SWIDTH 488 0
DWIDTH 32 0
BBX 29 45 0 0
BITMAP
FFFFFFF8
FFFFFFF8
FFFFFFF8
FFFFFFF8
FFFFFFF8
FFFFFFF8
FFFFFFF8
FFFFFFF8
FFFFFFF8
FFFFFFF8
FFFFFFF8
FFFFFFF8
FFFFFFF8
FFF8FFF8
FFF8FFF8
FFF8FFF8
FFFFFFF8
FFFFFFF8
FFFFFFF0
FFFFFFE0
FFFFFFC0
FFFFFF80
FFFFFF00
FFFFFE00
FFFFFFF8
FFFFFFF8
FFFFFFF8
FFFFFFF8
FFFFFFF8
FFF8FFF8
FFF8FFF8
FFF8FFF8
FFF8FFF8
FFF8FFF8
FFF8FFF8
FFF8FFF8
FFF8FFF8
FFF8FFF8
FFF8FFF8
FFF8FFF8
FFF8FFF8
FFF8FFF8
FFF8FFF8
FFF8FFF8
FFF8FFF8
ENDCHAR
STARTCHAR s
ENCODING 115
SWIDTH 488 0
DWIDTH 32 0
BBX 29 45 0 0
BITMAP
FFFFFFF8
FFFFFFF8
FFFFFFF8
FFFFFFF8
FFFFFFF8
FFFFFFF8
FFFFFFF8
FFFFFFF8
FFFFFFF8
FFFFFFF8
FFFFFFF8
FFFFFFF8
FFFFFFF8
FFF80000
FFF80000
FFF80000
FFFFFFF8
FFFFFFF8
FFFFFFF8
FFFFFFF8
FFFFFFF8
FFFFFFF8
FFFFFFF8
FFFFFFF8
FFFFFFF8
FFFFFFF8
FFFFFFF8
FFFFFFF8
FFFFFFF8
0000FFF8
0000FFF8
0000FFF8
FFFFFFF8
FFFFFFF8
FFFFFFF8
FFFFFFF8
FFFFFFF8
FFFFFFF8
FFFFFFF8
FFFFFFF8
FFFFFFF8
FFFFFFF8
FFFFFFF8
FFFFFFF8
FFFFFFF8
ENDCHAR
STARTCHAR t
ENCODING 116
SWIDTH 488 0
DWIDTH 32 0
BBX 29 45 0 0
BITMAP
FFFFFFF8
FFFFFFF8
FFFFFFF8
FFFFFFF8
FFFFFFF8
FFFFFFF8
FFFFFFF8
FFFFFFF8
FFFFFFF8
FFFFFFF8
FFFFFFF8
FFFFFFF8
FFFFFFF8
00FFF800
00FFF800
00FFF800
00FFF800
00FFF800
00FFF800
00FFF800
00FFF800
00FFF800
00FFF800
00FFF800
00FFF800
00FFF800
00FFF800
00FFF800
00FFF800
00FFF800
00FFF800
00FFF800
00FFF800
00FFF800
00FFF800
00FFF800
00FFF800
00FFF800
00FFF800
00FFF800
00FFF800
00FFF800
00FFF800
00FFF800
00FFF800
ENDCHAR
STARTCHAR u
ENCODING 117
SWIDTH 488 0
DWIDTH 32 0
BBX 29 45 0 0
BITMAP
FFF8FFF8
FFF8FFF8
FFF8FFF8
FFF8FFF8
FFF8FFF8
FFF8FFF8
FFF8FFF8
FFF8FFF8
FFF8FFF8
FFF8FFF8
FFF8FFF8
FFF8FFF8
FFF8FFF8
FFF8FFF8
FFF8FFF8
FFF8FFF8
FFF8FFF8
FFF8FFF8
FFF8FFF8
FFF8FFF8
FFF8FFF8
FFF8FFF8
FFF8FFF8
FFF8FFF8
FFF8FFF8
FFF8FFF8
FFF8FFF8
FFF8FFF8
FFF8FFF8
FFF8FFF8
FFF8FFF8
FFF8FFF8
FFFFFFF8
FFFFFFF8
FFFFFFF8
FFFFFFF8
FFFFFFF8
FFFFFFF8
FFFFFFF8
FFFFFFF8
FFFFFFF8
FFFFFFF8
FFFFFFF8
FFFFFFF8
FFFFFFF8
ENDCHAR
STARTCHAR v
ENCODING 118
SWIDTH 488 0
DWIDTH 32 0
BBX 29 58 0 -13
BITMAP
FFF8FFF8
FFF8FFF8
FFF8FFF8
FFF8FFF8
FFF8FFF8
FFF8FFF8
FFF8FFF8
FFF8FFF8
FFF8FFF8
FFF8FFF8
FFF8FFF8
FFF8FFF8
FFF8FFF8
FFF8FFF8
FFF8FFF8
FFF8FFF8
FFF8FFF8
FFF8FFF8
FFF8FFF8
FFF8FFF8
FFF8FFF8
FFF8FFF8
FFF8FFF8
FFF9FFF8
FFFBFFF8
FFFFFFF8
FFFFFFF8
FFFFFFF8
FFFFFFF8
FFFFFFF0
FFFFFFE0
FFFFFFC0
FFFFFF80
FFFFFF00
FFFFFE00
FFFFFC00
FFFFF800
FFFFF000
FFFFE000
FFFFC000
FFFF8000
FFFF0000
FFFE0000
FFFC0000
FFF80000
FFF00000
FFE00000
FFC00000
FF800000
FF000000
FE000000
FC000000
F8000000
F0000000
E0000000
C0000000
80000000
80000000
ENDCHAR
STARTCHAR w
ENCODING 119
SWIDTH 732 0
DWIDTH 48 0
BBX 44 45 0 0
BITMAP
FFF8FFF8FFF0
FFF8FFF8FFF0
FFF8FFF8FFF0
FFF8FFF8FFF0
FFF8FFF8FFF0
FFF8FFF8FFF0
FFF8FFF8FFF0
FFF8FFF8FFF0
FFF8FFF8FFF0
FFF8FFF8FFF0
FFF8FFF8FFF0
FFF8FFF8FFF0
FFF8FFF8FFF0
FFF8FFF8FFF0
FFF8FFF8FFF0
FFF8FFF8FFF0
FFF8FFF8FFF0
FFF8FFF8FFF0
FFF8FFF8FFF0
FFF8FFF8FFF0
FFF8FFF8FFF0
FFF8FFF8FFF0
FFF8FFF8FFF0
FFF8FFF8FFF0
FFF8FFF8FFF0
FFF8FFF8FFF0
FFF8FFF8FFF0
FFF8FFF8FFF0
FFF8FFF8FFF0
FFF8FFF8FFF0
FFF8FFF8FFF0
FFF8FFF8FFF0
FFFFFFFFFFF0
FFFFFFFFFFF0
FFFFFFFFFFF0
FFFFFFFFFFF0
FFFFFFFFFFF0
FFFFFFFFFFF0
FFFFFFFFFFF0
FFFFFFFFFFF0
FFFFFFFFFFF0
FFFFFFFFFFF0
FFFFFFFFFFF0
FFFFFFFFFFF0
FFFFFFFFFFF0
ENDCHAR
STARTCHAR x
ENCODING 120
SWIDTH 488 0
DWIDTH 32 0
BBX 29 45 0 0
BITMAP
FFF8FFF8
FFF8FFF8
FFF8FFF8
FFF8FFF8
FFF8FFF8
FFF8FFF8
FFF8FFF8
FFF8FFF8
FFF8FFF8
FFF8FFF8
FFF8FFF8
FFF8FFF8
FFF8FFF8
FFF8FFF8
FFF8FFF8
FFF8FFF8
FFFFFFF8
FFFFFFF8
FFFFFFF0
FFFFFFE0
FFFFFFC0
03FFFF80
07FFFF00
0FFFFE00
1FFFFFF8
3FFFFFF8
7FFFFFF8
FFFFFFF8
FFFFFFF8
FFF8FFF8
FFF8FFF8
FFF8FFF8
FFF8FFF8
FFF8FFF8
FFF8FFF8
FFF8FFF8
FFF8FFF8
FFF8FFF8
FFF8FFF8
FFF8FFF8
FFF8FFF8
FFF8FFF8
FFF8FFF8
FFF8FFF8
FFF8FFF8
ENDCHAR
STARTCHAR y
ENCODING 121
SWIDTH 488 0
DWIDTH 32 0
BBX 29 45 0 0
BITMAP
FFF8FFF8
FFF8FFF8
FFF8FFF8
FFF8FFF8
FFF8FFF8
FFF8FFF8
FFF8FFF8
FFF8FFF8
FFF8FFF8
FFF8FFF8
FFF8FFF8
FFF8FFF8
FFF8FFF8
FFF8FFF8
FFF8FFF8
FFF8FFF8
FFFFFFF8
FFFFFFF8
FFFFFFF8
FFFFFFF8
FFFFFFF8
FFFFFFF8
FFFFFFF8
FFFFFFF8
FFFFFFF8
FFFFFFF8
FFFFFFF8
FFFFFFF8
FFFFFFF8
00FFF800
00FFF800
00FFF800
00FFF800
00FFF800
00FFF800
00FFF800
00FFF800
00FFF800
00FFF800
00FFF800
00FFF800
00FFF800
00FFF800
00FFF800
00FFF800
ENDCHAR
STARTCHAR z
ENCODING 122
SWIDTH 488 0
DWIDTH 32 0
BBX 29 45 0 0
BITMAP
FFFFFFF8
FFFFFFF8
FFFFFFF8
FFFFFFF8
FFFFFFF8
FFFFFFF8
FFFFFFF8
FFFFFFF8
FFFFFFF8
FFFFFFF8
FFFFFFF8
FFFFFFF8
FFFFFFF8
0000FFF8
0000FFF8
0000FFF8
FFFFFFF8
FFFFFFF8
FFFFFFF8
FFFFFFF8
FFFFFFF8
FFFFFFF8
FFFFFFF8
FFFFFFF8
FFFFFFF8
FFFFFFF8
FFFFFFF8
FFFFFFF8
FFFFFFF8
FFF80000
FFF80000
FFF80000
FFFFFFF8
FFFFFFF8
FFFFFFF8
FFFFFFF8
FFFFFFF8
FFFFFFF8
FFFFFFF8
FFFFFFF8
FFFFFFF8
FFFFFFF8
FFFFFFF8
FFFFFFF8
FFFFFFF8
ENDCHAR
STARTCHAR braceleft
ENCODING 123
SWIDTH 488 0
DWIDTH 32 0
BBX 29 51 0 -3
BITMAP
03FFFFF8
03FFFFF8
03FFFFF8
03FFFFF8
03FFFFF8
03FFFFF8
03FFFFF8
03FFFFF8
03FFFFF8
03FFFFF8
03FFFFF8
03FFFFF8
03FFFFF8
03FFE000
03FFE000
03FFE000
03FFE000
03FFE000
03FFE000
FFFFE000
FFFFE000
FFFFE000
FFFFE000
FFFFE000
FFFFE000
FFFFE000
FFFFE000
FFFFE000
FFFFE000
FFFFE000
FFFFE000
FFFFE000
03FFE000
03FFE000
03FFE000
03FFE000
03FFE000
03FFE000
03FFFFF8
03FFFFF8
03FFFFF8
03FFFFF8
03FFFFF8
03FFFFF8
03FFFFF8
03FFFFF8
03FFFFF8
03FFFFF8
03FFFFF8
03FFFFF8
03FFFFF8
ENDCHAR
STARTCHAR bar
ENCODING 124
SWIDTH 244 0
DWIDTH 16 0
BBX 13 45 0 0
BITMAP
FFF8
FFF8
FFF8
FFF8
FFF8
FFF8
FFF8
FFF8
FFF8
FFF8
FFF8
FFF8
FFF8
FFF8
FFF8
FFF8
FFF8
FFF8
FFF8
FFF8
FFF8
FFF8
FFF8
FFF8
FFF8
FFF8
FFF8
FFF8
FFF8
FFF8
FFF8
FFF8
FFF8
FFF8
FFF8
FFF8
FFF8
FFF8
FFF8
FFF8
FFF8
FFF8
FFF8
FFF8
FFF8
ENDCHAR
STARTCHAR braceright
ENCODING 125
SWIDTH 488 0
DWIDTH 32 0
BBX 29 51 0 -3
BITMAP
FFFFFC00
FFFFFC00
FFFFFC00
FFFFFC00
FFFFFC00
FFFFFC00
FFFFFC00
FFFFFC00
FFFFFC00
FFFFFC00
FFFFFC00
FFFFFC00
FFFFFC00
003FFC00
003FFC00
003FFC00
003FFC00
003FFC00
003FFC00
003FFFF8
003FFFF8
003FFFF8
003FFFF8
003FFFF8
003FFFF8
003FFFF8
003FFFF8
003FFFF8
003FFFF8
003FFFF8
003FFFF8
003FFFF8
003FFC00
003FFC00
003FFC00
003FFC00
003FFC00
003FFC00
FFFFFC00
FFFFFC00
FFFFFC00
FFFFFC00
FFFFFC00
FFFFFC00
FFFFFC00
FFFFFC00
FFFFFC00
FFFFFC00
FFFFFC00
FFFFFC00
FFFFFC00
ENDCHAR
STARTCHAR asciitilde
ENCODING 126
SWIDTH 390 0
DWIDTH 25 0
BBX 22 13 0 16
BITMAP
FFFFFC
FFFFFC
FFFFFC
FFFFFC
FFFFFC
FFFFFC
FFFFFC
FFFFFC
FFFFFC
FFFFFC
FFFFFC
FFFFFC
FFFFFC
ENDCHAR
STARTCHAR space.dup2
ENCODING 160
SWIDTH 122 0
DWIDTH 8 0
BBX 1 1 0 0
BITMAP
00
ENDCHAR
STARTCHAR hyphen.dup3
ENCODING 173
SWIDTH 390 0
DWIDTH 25 0
BBX 22 13 0 16
BITMAP
FFFFFC
FFFFFC
FFFFFC
FFFFFC
FFFFFC
FFFFFC
FFFFFC
FFFFFC
FFFFFC
FFFFFC
FFFFFC
FFFFFC
FFFFFC
ENDCHAR
STARTCHAR semicolon.dup4
ENCODING 894
SWIDTH 244 0
DWIDTH 16 0
BBX 13 45 0 -12
BITMAP
FFF8
FFF8
FFF8
FFF8
FFF8
FFF8
FFF8
FFF8
FFF8
FFF8
FFF8
FFF8
FFF8
0000
0000
0000
0000
0000
0000
0000
FFF8
FFF8
FFF8
FFF8
FFF8
FFF8
FFF8
FFF8
FFF8
FFF8
FFF8
FFF8
FFF8
FFF0
FFE0
FFC0
FF80
FF00
FE00
FC00
F800
F000
E000
C000
8000
ENDCHAR
STARTCHAR .notdef
ENCODING -1
SWIDTH 732 0
DWIDTH 48 0
BBX 44 44 0 0
BITMAP
00007FE00000
0003801C0000
000C00030000
00100600C000
00600F002000
008006001000
01003FC00800
030016800400
06000F000200
0C0007000300
180000000180
180000000180
306BB5DBE0C0
304DCDDBA0C0
607BBEFFE060
600000000060
7FFFFFFFFFF0
FFFFFFFFFFF0
FFFC3FFC3FF0
FFF87FFC3FF0
FF007FFC7FF0
FE087FF87FF0
FE38FFF87FF0
FE10E2708FF0
FE30C03007F0
FFF1843087F0
FE6184318FF0
7C238C611FF0
7C4308413BF0
7C07080303E0
3E0F1C630FE0
3FFFFFFFFFC0
1FFFFFFFFFC0
1FFFFFFFFF80
0E0000000700
070000000700
0700EBF00E00
0380FFF01C00
01C000003800
006000007000
00300000C000
000C00018000
0003000E0000
0000FFF00000
ENDCHAR
STARTCHAR nonmarkingreturn
ENCODING -1
SWIDTH 248 0
DWIDTH 16 0
BBX 1 1 0 0
BITMAP
00
ENDCHAR
ENDFONT
